<svg width="28" height="28" viewBox="0 0 28 28" fill="none" xmlns="http://www.w3.org/2000/svg">
<path d="M11.708 5.87487L12.0856 6.25253C12.1122 6.27908 12.1255 6.29236 12.1368 6.30346C13.1728 7.31509 14.8268 7.31509 15.8629 6.30346C15.8742 6.29236 15.8875 6.27909 15.914 6.25255L15.9141 6.25253L16.2917 5.87487C17.0653 5.10132 18.1144 4.66675 19.2084 4.66675C21.4864 4.66675 23.3332 6.51348 23.3332 8.79153V11.1835C23.3332 12.2399 22.9135 13.2531 22.1665 14.0001C21.4195 14.7471 20.9998 15.7602 20.9998 16.8167V22.337C20.9998 23.5316 20.0314 24.5001 18.8367 24.5001C18.0174 24.5001 17.2684 24.0372 16.902 23.3043L15.5651 20.6306L15.5651 20.6306C15.2472 19.9947 15.0882 19.6768 14.9195 19.5161C14.4045 19.0255 13.5951 19.0255 13.0802 19.5161C12.9115 19.6768 12.7525 19.9947 12.4346 20.6306L11.0977 23.3043C10.7313 24.0372 9.98229 24.5001 9.16296 24.5001C7.9683 24.5001 6.99984 23.5316 6.99984 22.337V16.8167C6.99984 15.7602 6.58018 14.7471 5.83317 14.0001C5.08617 13.2531 4.6665 12.2399 4.6665 11.1835V8.79154C4.6665 6.51348 6.51324 4.66675 8.79129 4.66675C9.88526 4.66675 10.9344 5.10132 11.708 5.87487Z" stroke="#33384B" stroke-width="2" stroke-linecap="round" stroke-linejoin="round"/>
<circle cx="14.0002" cy="12.8334" r="1.16667" fill="#33384B"/>
<circle cx="9.33317" cy="10.4999" r="1.16667" fill="#33384B"/>
<circle cx="18.6667" cy="10.4999" r="1.16667" fill="#33384B"/>
</svg>
