<svg width="28" height="28" viewBox="0 0 28 28" fill="none" xmlns="http://www.w3.org/2000/svg">
<path d="M24.4998 12.6213V9.33341C24.4998 8.71419 24.4998 8.40457 24.4656 8.14464C24.2293 6.34971 22.8169 4.93728 21.0219 4.70097C20.762 4.66675 20.4524 4.66675 19.8332 4.66675C19.2139 4.66675 18.9043 4.66675 18.6444 4.70097C16.8495 4.93728 15.437 6.34971 15.2007 8.14464C15.1665 8.40457 15.1665 8.71419 15.1665 9.33341V14.0001C15.1665 15.9331 13.5995 17.5001 11.6665 17.5001C9.73351 17.5001 8.1665 19.0671 8.1665 21.0001C8.1665 22.9331 9.73351 24.5001 11.6665 24.5001H12.621C13.7467 24.5001 14.3095 24.5001 14.7839 24.4576C19.9239 23.9977 23.9974 19.9241 24.4574 14.7841C24.4998 14.3097 24.4998 13.7469 24.4998 12.6213Z" stroke="#33384B" stroke-width="2" stroke-linecap="round" stroke-linejoin="round"/>
<path d="M9.3335 3.5V3.5C9.3335 5.20744 9.3335 6.06116 9.58987 6.74233C9.99563 7.82039 10.8464 8.6712 11.9245 9.07696C12.6057 9.33333 13.4594 9.33333 15.1668 9.33333V9.33333" stroke="#33384B" stroke-width="2" stroke-linecap="round" stroke-linejoin="round"/>
<path d="M3.5 24.5V24.5C3.5 22.567 5.067 21 7 21H8.16667" stroke="#33384B" stroke-width="2" stroke-linecap="round" stroke-linejoin="round"/>
</svg>
