<svg width="36" height="36" viewBox="0 0 36 36" fill="none" xmlns="http://www.w3.org/2000/svg">
<rect width="36" height="36" rx="18" fill="#34A853"/>
<path d="M18.6141 16.1705H18.3954C16.4779 16.0891 14.594 14.721 13.6016 12.669C12.6092 10.6169 12.7101 8.33682 13.8707 6.85477L14.0053 6.69189H14.224C15.9901 6.75704 17.7394 7.92966 18.7823 9.73744C18.8664 9.88401 18.9505 10.0306 19.0178 10.1934C20.0101 12.2455 19.9092 14.5256 18.7486 16.0077L18.6141 16.1705ZM14.409 7.50621C13.5512 8.74397 13.5343 10.6006 14.3585 12.3107C15.1827 14.0044 16.6797 15.1771 18.2104 15.3399C19.0682 14.1022 19.085 12.2455 18.2608 10.5355C18.1936 10.4052 18.1263 10.2586 18.0422 10.1283C17.2012 8.66254 15.7883 7.65279 14.409 7.50621Z" fill="white"/>
<path d="M18.4128 16.1543C18.1941 16.1543 18.0091 15.9752 17.9923 15.7635C17.9755 15.5354 18.1605 15.3563 18.396 15.34C19.9771 15.2749 21.6086 14.0534 22.4665 12.2945C23.2738 10.617 23.257 8.72779 22.416 7.49003C21.0536 7.6366 19.6911 8.5812 18.8333 10.0144C18.7155 10.2098 18.4632 10.275 18.2614 10.161C18.0596 10.047 17.9923 9.80267 18.11 9.60724C19.1697 7.84832 20.8854 6.72457 22.6178 6.65942H22.8365L22.9711 6.82228C24.1317 8.30434 24.2494 10.5844 23.2402 12.6365C22.231 14.6886 20.3639 16.0729 18.4464 16.138C18.4296 16.1543 18.4128 16.1543 18.4128 16.1543Z" fill="white"/>
<path d="M16.2767 8.14143C16.2263 8.14143 16.1758 8.12514 16.1253 8.10885C15.9067 8.02742 15.8058 7.78312 15.8899 7.58769C16.3777 6.36622 17.2018 5.42161 18.2279 4.90045L18.4297 4.80273L18.6316 4.90045C19.6576 5.42161 20.4818 6.36622 20.9696 7.58769C21.0537 7.79941 20.9528 8.02742 20.7341 8.10885C20.5154 8.19028 20.28 8.09256 20.1959 7.88084C19.809 6.93624 19.2035 6.17078 18.4465 5.73105C17.6896 6.17078 17.0841 6.93624 16.6972 7.88084C16.5963 8.04371 16.4449 8.14143 16.2767 8.14143Z" fill="white"/>
<path d="M18.379 28.6133L18.0762 28.5808C16.5288 28.4505 14.7794 27.115 13.6188 25.1607C12.4582 23.2226 12.1218 21.0891 12.761 19.721L12.8788 19.4604L13.1815 19.493C14.729 19.6233 16.4783 20.9588 17.6389 22.9131C18.7995 24.8512 19.1359 26.9847 18.4967 28.3528L18.379 28.6133ZM14.3589 24.7698C15.3009 26.3333 16.6633 27.4733 17.8576 27.7339C18.2108 26.6101 17.8576 24.8838 16.9324 23.3203C15.9905 21.7568 14.6281 20.6168 13.4338 20.3562C13.0638 21.48 13.4338 23.2063 14.3589 24.7698Z" fill="white"/>
<path d="M18.4461 28.6133L18.3284 28.3528C17.6892 26.9847 18.0256 24.8512 19.1862 22.9131C20.3468 20.9751 22.0961 19.6233 23.6436 19.493L23.9464 19.4604L24.0641 19.721C24.7033 21.0891 24.3669 23.2226 23.2063 25.1607C22.0457 27.0987 20.2964 28.4505 18.7489 28.5808L18.4461 28.6133ZM23.3913 20.3562C22.1971 20.6168 20.8346 21.7568 19.8927 23.3203C18.9507 24.8838 18.5975 26.5938 18.9676 27.7339C20.1618 27.4733 21.5242 26.3333 22.4662 24.7698C23.4081 23.2063 23.7613 21.48 23.3913 20.3562Z" fill="white"/>
<path d="M18.4127 30.7958C18.1772 30.7958 17.9922 30.6166 17.9922 30.3886V15.7472C17.9922 15.5192 18.1772 15.3401 18.4127 15.3401C18.6482 15.3401 18.8332 15.5192 18.8332 15.7472V30.3886C18.8332 30.6166 18.6482 30.7958 18.4127 30.7958Z" fill="white"/>
</svg>
