<svg width="20" height="20" viewBox="0 0 20 20" fill="none" xmlns="http://www.w3.org/2000/svg">
<path d="M17.4482 10.8966L14.2028 14.8632L14.2028 14.8632C12.7625 16.6236 12.0423 17.5038 11.1766 17.8238C10.4173 18.1044 9.5827 18.1044 8.8234 17.8238C7.95768 17.5038 7.23752 16.6236 5.79718 14.8632L2.55176 10.8966C1.79944 9.97709 1.42328 9.51734 1.22877 9.02514C0.91206 8.22372 0.91206 7.33183 1.22877 6.53041C1.42328 6.03821 1.79944 5.57847 2.55175 4.65897L3.45455 3.55556C3.71096 3.24216 3.83917 3.08546 3.95289 2.97071C5.28075 1.63073 7.44652 1.63073 8.77439 2.97071C8.8881 3.08546 9.01631 3.24216 9.27273 3.55556C9.33683 3.63391 9.36888 3.67308 9.39731 3.70177C9.72928 4.03676 10.2707 4.03676 10.6027 3.70177C10.6311 3.67308 10.6632 3.63391 10.7273 3.55556L10.7273 3.55551C10.9837 3.24214 11.1119 3.08545 11.2256 2.97071C12.5535 1.63073 14.7193 1.63073 16.0471 2.97071C16.1608 3.08546 16.289 3.24216 16.5455 3.55555L17.4482 4.65897C18.2006 5.57846 18.5767 6.03821 18.7712 6.53041C19.0879 7.33183 19.0879 8.22372 18.7712 9.02514C18.5767 9.51734 18.2006 9.97709 17.4482 10.8966Z" stroke="#ED5E5E" stroke-width="2" stroke-linejoin="round"/>
</svg>
