<svg width="28" height="28" viewBox="0 0 28 28" fill="none" xmlns="http://www.w3.org/2000/svg">
<path d="M16.3335 13.3536V9.91659C16.3335 7.66142 18.1617 5.83325 20.4168 5.83325H20.8457C22.864 5.83325 24.5002 7.4694 24.5002 9.4877C24.5002 10.15 24.3202 10.7999 23.9794 11.3679L21.8681 14.8866C21.3296 15.7841 20.3598 16.3333 19.3131 16.3333C17.6675 16.3333 16.3335 14.9992 16.3335 13.3536Z" stroke="#33384B" stroke-width="2" stroke-linecap="round" stroke-linejoin="round"/>
<path d="M12.6136 19.6255L9.01689 21.6807C8.45973 21.9991 7.82913 22.1666 7.18742 22.1666C5.15092 22.1666 3.5 20.5157 3.5 18.4792V12.2499C3.5 11.2435 3.5 10.7403 3.56773 10.3193C3.93324 8.04766 5.71441 6.26649 7.98609 5.90098C8.407 5.83325 8.91023 5.83325 9.91667 5.83325C10.9231 5.83325 11.4263 5.83325 11.8472 5.90098C14.1189 6.26649 15.9001 8.04766 16.2656 10.3193C16.3333 10.7403 16.3333 11.2435 16.3333 12.2499V13.2157C16.3333 14.3689 16.3333 14.9454 16.2249 15.475C15.9918 16.6129 15.3937 17.6435 14.5214 18.4104C14.1154 18.7673 13.6148 19.0533 12.6136 19.6255L12.6136 19.6255Z" stroke="#33384B" stroke-width="2" stroke-linecap="round" stroke-linejoin="round"/>
<path d="M16.3335 24.4999L16.3335 17.4999C16.3335 15.5669 14.7665 13.9999 12.8335 13.9999V13.9999C10.9005 13.9999 9.3335 12.4329 9.3335 10.4999V9.33325" stroke="#33384B" stroke-width="2" stroke-linecap="round" stroke-linejoin="round"/>
<path d="M16.3335 24.5L16.3335 15.1667C16.3335 12.5893 18.4228 10.5 21.0002 10.5V10.5" stroke="#33384B" stroke-width="2" stroke-linecap="round" stroke-linejoin="round"/>
</svg>
