<svg width="28" height="28" viewBox="0 0 28 28" fill="none" xmlns="http://www.w3.org/2000/svg">
<path d="M11.6665 12.8333V12.8333C11.6665 13.6081 11.6665 13.9955 11.7464 14.3145C11.9855 15.269 12.7308 16.0143 13.6852 16.2533C14.0043 16.3333 14.3917 16.3333 15.1665 16.3333V16.3333C15.9413 16.3333 16.3287 16.3333 16.6478 16.2533C17.6023 16.0143 18.3475 15.269 18.5866 14.3145C18.6665 13.9955 18.6665 13.6081 18.6665 12.8333V12.8333" stroke="#33384B" stroke-width="2" stroke-linecap="round" stroke-linejoin="round"/>
<path d="M15.1665 25.6667L15.1665 7" stroke="#33384B" stroke-width="2" stroke-linecap="round" stroke-linejoin="round"/>
<path d="M11.6665 9.33325V9.33325C13.5995 9.33325 15.1665 10.9003 15.1665 12.8333V13.9999" stroke="#33384B" stroke-width="2" stroke-linecap="round" stroke-linejoin="round"/>
<path d="M19.8711 25.6666V20.6909C19.8711 19.1941 20.4991 17.766 21.6022 16.7543V16.7543C22.7052 15.7426 23.3332 14.3145 23.3332 12.8177V10.4999C23.3332 5.9896 19.6768 2.33325 15.1665 2.33325V2.33325C10.6562 2.33325 6.99984 5.9896 6.99984 10.4999V11.0023C6.99984 11.4392 6.89812 11.87 6.70275 12.2608L5.31142 15.0434C5.01512 15.636 5.44604 16.3333 6.10858 16.3333V16.3333C6.60081 16.3333 6.99984 16.7323 6.99984 17.2245V18.0833C6.99984 19.0498 7.78334 19.8333 8.74984 19.8333V19.8333C9.71634 19.8333 10.4998 20.6168 10.4998 21.5833V25.6666" stroke="#33384B" stroke-width="2" stroke-linecap="round" stroke-linejoin="round"/>
</svg>
