<svg width="28" height="28" viewBox="0 0 28 28" fill="none" xmlns="http://www.w3.org/2000/svg">
<path d="M11.6665 9.625V19.25C11.6665 19.3274 11.6665 19.3661 11.666 19.3988C11.6307 21.5567 9.88985 23.2975 7.73195 23.3328C7.69923 23.3333 7.66054 23.3333 7.58317 23.3333C7.5058 23.3333 7.46711 23.3333 7.43439 23.3328C5.27649 23.2975 3.53569 21.5567 3.50037 19.3988C3.49984 19.3661 3.49984 19.3274 3.49984 19.25V13.7C3.49984 12.5267 3.49984 11.94 3.65362 11.4015C3.78982 10.9246 4.01354 10.4772 4.31334 10.0821C4.65184 9.636 5.12118 9.284 6.05984 8.58L7.46651 7.525C7.92088 7.18422 8.47353 7 9.0415 7C10.4913 7 11.6665 8.17525 11.6665 9.625Z" stroke="#33384B" stroke-width="2" stroke-linecap="round" stroke-linejoin="round"/>
<path d="M16.3335 10.2998V19.25C16.3335 19.3274 16.3335 19.3661 16.334 19.3988C16.3693 21.5567 18.1101 23.2975 20.268 23.3328C20.3008 23.3333 20.3395 23.3333 20.4168 23.3333C20.4942 23.3333 20.5329 23.3333 20.5656 23.3328C22.7235 23.2975 24.4643 21.5567 24.4996 19.3988C24.5002 19.3661 24.5002 19.3274 24.5002 19.25V12.9749C24.5002 12.1702 24.5002 11.7679 24.4252 11.3862C24.3227 10.8642 24.1172 10.3679 23.8205 9.92637C23.6036 9.60348 23.3191 9.31899 22.7502 8.75L21.9667 7.9665C21.3478 7.34766 20.5085 7 19.6333 7C17.8109 7 16.3335 8.47738 16.3335 10.2998Z" stroke="#33384B" stroke-width="2" stroke-linecap="round" stroke-linejoin="round"/>
<path d="M14 2.33325V9.33325C14 11.2662 15.567 12.8333 17.5 12.8333V12.8333C19.433 12.8333 21 14.4003 21 16.3333V16.9166" stroke="#33384B" stroke-width="2" stroke-linecap="round" stroke-linejoin="round"/>
<path d="M14 2.33325V9.33325C14 11.2662 12.433 12.8333 10.5 12.8333V12.8333C8.567 12.8333 7 14.4003 7 16.3333V16.9166" stroke="#33384B" stroke-width="2" stroke-linecap="round" stroke-linejoin="round"/>
</svg>
