<svg width="10" height="22" viewBox="0 0 10 22" fill="none" xmlns="http://www.w3.org/2000/svg">
<path d="M5.16803 9.64163H4.98564C3.38621 9.5737 1.81485 8.4326 0.987072 6.72093C0.159299 5.00926 0.243479 3.10741 1.21155 1.87121L1.3238 1.73535H1.50618C2.97934 1.78969 4.43847 2.76779 5.30834 4.27569C5.37849 4.39795 5.44864 4.52021 5.50476 4.65606C6.33253 6.36773 6.24835 8.26958 5.28027 9.50578L5.16803 9.64163ZM1.66052 2.41458C0.944982 3.44702 0.930953 4.99568 1.61843 6.42207C2.3059 7.83487 3.55458 8.81297 4.83131 8.94882C5.54685 7.91638 5.56087 6.36772 4.8734 4.94133C4.81728 4.83266 4.76116 4.71039 4.69101 4.60172C3.98951 3.3791 2.81098 2.53685 1.66052 2.41458Z" fill="white"/>
<path d="M4.99959 9.62787C4.8172 9.62787 4.66287 9.47843 4.64884 9.30183C4.63481 9.11165 4.78913 8.96222 4.98555 8.94864C6.30438 8.8943 7.66529 7.87545 8.38083 6.4083C9.05427 5.00908 9.04024 3.43326 8.33874 2.40083C7.2023 2.52309 6.06587 3.311 5.35034 4.50645C5.25213 4.66946 5.04168 4.72381 4.87332 4.62871C4.70496 4.53362 4.64884 4.32985 4.74705 4.16683C5.63094 2.69969 7.06201 1.76235 8.5071 1.70801H8.68949L8.80173 1.84385C9.76981 3.08006 9.86803 4.98191 9.02622 6.69358C8.18442 8.40525 6.62708 9.55995 5.02765 9.61429C5.01362 9.62787 4.99959 9.62787 4.99959 9.62787Z" fill="white"/>
<path d="M3.21791 2.94429C3.17582 2.94429 3.13373 2.93069 3.09164 2.91711C2.90925 2.84919 2.82507 2.64542 2.89522 2.4824C3.3021 1.46355 3.98957 0.675638 4.8454 0.240929L5.01376 0.159424L5.18213 0.240929C6.03796 0.675638 6.72543 1.46355 7.1323 2.4824C7.20245 2.659 7.11827 2.84919 6.93588 2.91711C6.75349 2.98503 6.55707 2.90353 6.48692 2.72693C6.16423 1.93901 5.65915 1.30054 5.0278 0.933749C4.39644 1.30054 3.89136 1.93901 3.56867 2.72693C3.48449 2.86277 3.35822 2.94429 3.21791 2.94429Z" fill="white"/>
<path d="M4.97168 20.0201L4.71914 19.9929C3.42837 19.8842 1.96924 18.7703 1.00117 17.1401C0.0330926 15.5236 -0.247506 13.744 0.285636 12.6028L0.383846 12.3855L0.636388 12.4127C1.92715 12.5213 3.38628 13.6353 4.35436 15.2655C5.32243 16.882 5.60303 18.6616 5.06989 19.8027L4.97168 20.0201ZM1.61849 16.8141C2.40418 18.1182 3.54061 19.0692 4.53675 19.2865C4.83138 18.3492 4.53675 16.9092 3.76509 15.6051C2.97941 14.3009 1.84298 13.35 0.846841 13.1327C0.53818 14.07 0.84684 15.51 1.61849 16.8141Z" fill="white"/>
<path d="M5.02789 20.0201L4.92968 19.8027C4.39654 18.6616 4.67714 16.882 5.64521 15.2655C6.61328 13.6489 8.07241 12.5213 9.36318 12.4127L9.61572 12.3855L9.71393 12.6028C10.2471 13.744 9.96647 15.5236 8.9984 17.1401C8.03032 18.7567 6.5712 19.8842 5.28043 19.9929L5.02789 20.0201ZM9.15273 13.1327C8.15659 13.35 7.02015 14.3009 6.23447 15.6051C5.44879 16.9092 5.15416 18.3356 5.46282 19.2865C6.45895 19.0692 7.59539 18.1182 8.38107 16.8141C9.16675 15.51 9.46139 14.07 9.15273 13.1327Z" fill="white"/>
<path d="M4.99968 21.8406C4.80326 21.8406 4.64893 21.6911 4.64893 21.501V9.28835C4.64893 9.09816 4.80326 8.94873 4.99968 8.94873C5.1961 8.94873 5.35043 9.09816 5.35043 9.28835V21.501C5.35043 21.6911 5.1961 21.8406 4.99968 21.8406Z" fill="white"/>
</svg>
